<?xml version="1.0" standalone="no"?>
<!DOCTYPE svg PUBLIC "-//W3C//DTD SVG 20010904//EN"
 "http://www.w3.org/TR/2001/REC-SVG-20010904/DTD/svg10.dtd">
<svg version="1.0" xmlns="http://www.w3.org/2000/svg"
 width="300.000000pt" height="300.000000pt" viewBox="0 0 300.000000 300.000000"
 preserveAspectRatio="xMidYMid meet">
<g transform="translate(0.000000,300.000000) scale(0.100000,-0.100000)"
fill="#000000" stroke="none">
<path d="M1020 2720 c-81 -13 -110 -26 -110 -51 0 -15 11 -25 43 -37 90 -35
214 -101 254 -136 145 -126 118 -360 -52 -449 -63 -33 -164 -30 -238 6 -76 38
-112 85 -111 146 0 25 4 67 8 94 8 45 8 47 -15 47 -16 0 -81 -49 -201 -151
-151 -128 -181 -158 -204 -205 -23 -47 -26 -63 -21 -114 6 -67 30 -116 156
-315 117 -183 262 -485 233 -485 -4 0 -58 29 -121 65 -62 36 -124 65 -137 65
-42 0 -57 -39 -52 -133 7 -106 31 -168 119 -302 83 -125 128 -160 218 -170 94
-10 213 -59 394 -161 94 -53 188 -107 207 -120 50 -32 116 -47 177 -40 58 7
127 31 285 100 164 72 196 76 327 43 125 -31 148 -33 199 -11 89 37 109 76
188 364 20 74 43 157 50 185 30 108 12 224 -71 463 -61 172 -68 186 -95 172
-23 -12 -33 -44 -65 -199 -14 -69 -27 -126 -29 -129 -3 -2 -13 11 -23 30 -16
29 -18 61 -19 283 0 205 -4 261 -18 310 -21 73 -59 160 -105 240 -44 78 -177
261 -193 267 -29 11 -38 -4 -38 -60 0 -122 -40 -223 -101 -256 -70 -38 -116 2
-163 141 -83 244 -251 426 -446 483 -82 24 -159 30 -230 20z m201 -76 c131
-39 257 -137 332 -261 20 -33 56 -110 78 -170 49 -132 76 -175 125 -198 103
-48 215 33 250 182 7 30 15 57 18 60 8 8 134 -189 167 -262 57 -127 62 -158
63 -430 1 -239 2 -252 24 -300 27 -58 68 -105 93 -105 22 0 35 33 63 168 13
63 26 116 29 118 2 2 16 -28 31 -68 79 -219 91 -320 51 -453 -15 -49 -42 -146
-60 -215 -43 -158 -57 -191 -95 -224 -47 -39 -70 -41 -187 -11 -155 40 -207
32 -413 -60 -139 -62 -188 -77 -255 -79 -45 -1 -69 4 -90 18 -27 18 -153 90
-335 191 -107 60 -196 93 -283 106 -97 14 -125 32 -187 121 -84 119 -122 205
-128 289 -6 86 -17 87 145 -7 62 -35 122 -64 133 -64 28 0 43 43 36 99 -12 88
-141 344 -288 568 -105 161 -126 228 -92 299 14 29 271 264 289 264 3 0 5 -12
5 -27 1 -73 69 -158 160 -201 76 -36 201 -38 275 -4 112 52 176 148 183 278 9
167 -61 271 -245 364 l-58 30 56 0 c30 0 80 -7 110 -16z"/>
<path d="M1685 1715 c-139 -31 -267 -86 -465 -199 -145 -83 -143 -81 -141
-157 4 -205 49 -428 113 -558 52 -105 128 -186 183 -197 49 -9 410 3 496 17
111 18 192 64 312 178 66 62 87 106 87 179 0 81 -111 528 -148 595 -69 127
-246 184 -437 142z m270 -105 c17 -19 17 -22 1 -81 l-18 -61 24 -16 c23 -17
27 -19 52 -21 42 -3 62 -72 27 -91 -22 -11 -76 -3 -108 17 -21 14 -22 13 -33
-29 -15 -54 -26 -68 -55 -68 -42 0 -51 25 -34 91 9 32 13 61 11 64 -3 3 -19 5
-37 5 -36 0 -55 15 -55 46 0 33 24 46 76 43 l47 -3 15 49 c7 28 19 56 24 63
15 18 42 15 63 -8z m-380 -170 c18 -20 18 -22 -6 -72 -16 -33 -20 -53 -13 -55
6 -2 31 -14 55 -26 84 -42 54 -117 -32 -83 -58 23 -65 21 -84 -31 -26 -72 -42
-93 -70 -93 -42 0 -50 33 -25 101 13 33 20 62 18 65 -3 3 -34 13 -69 23 -69
19 -92 42 -78 79 10 27 42 29 113 7 69 -21 72 -20 91 28 30 77 65 96 100 57z
m308 -405 c23 -22 39 -81 41 -142 1 -62 -16 -83 -69 -83 -71 0 -142 152 -101
215 14 21 24 25 66 25 30 0 54 -6 63 -15z"/>
</g>
</svg>
